# xmcd CD database file
# Copyright (C) 1997 Ti Kan
# 
# Track frame offsets:
#     150
#     13991
#     29084
#     39514
#     50379
#     62790
#     74596
#     86865
#     95804
#     102784
#     115749
#     129765
#     144286
#     154251
#     166046
#     179081
#     189501
#     203030
#     210307
#     222779
# 
# Disc length: 3079 seconds
# 
# Revision: 1
# Processed by: cddbd v1.4b41PL1 Copyright (c) Steve Scherf et al.
# Submitted via: DiscPlay 4.0.3
# 
DISCID=210c0514
DTITLE=Various Artist - Rhythm and Blues Christmas
DYEAR=1900
DGENRE=
TTITLE0=Christmas Time For Everybody But Me/Hank Ballard and The Midnighters
TTITLE1=Merry Christmas Boby/Charles Brown
TTITLE2=Christmas Comes But Once A Year/Amos Milburn with Charles Brown
TTITLE3=Lonesome Christmas (Part 1)/Lowell Fulson
TTITLE4=Christmas Tears/Freddy King
TTITLE5=Gee Whiz It's Christmas/Carla Thomas
TTITLE6=Christmas In Heaven/Billy Ward and The Doninoes
TTITLE7=Sleigh Ride/Lloyd Glenn
TTITLE8=Joy To The World/bill Doggett
TTITLE9=Winkle Twinkle Christmas Star/Lillian Brooks
TTITLE10=Santa Claus Is Coming/Hank Ballard
TTITLE11=Christmas With No One To Love/Charles Brown
TTITLE12=Lonesome Christmas (Part 2)/Lowell Fulson
TTITLE13=I Hear Jingle Bells/Freddy King
TTITLE14=Christmas Blues/Gatemouth Moore
TTITLE15=Boogie Woogie Santa Claus/Mabel Scott
TTITLE16=Christmas Bells/Jimmy Witherspoon
TTITLE17=Frosty The Snowman/Trailblzers
TTITLE18=The FIrst Noel/Gallatian Singers
TTITLE19=Adeste Fideles/King Karoleers
EXTD=
EXTT0=
EXTT1=
EXTT2=
EXTT3=
EXTT4=
EXTT5=
EXTT6=
EXTT7=
EXTT8=
EXTT9=
EXTT10=
EXTT11=
EXTT12=
EXTT13=
EXTT14=
EXTT15=
EXTT16=
EXTT17=
EXTT18=
EXTT19=
PLAYORDER=
